<mxfile host="app.diagrams.net" modified="2024-02-15T08:19:56.610Z" agent="Mozilla/5.0 (Windows NT 10.0; Win64; x64) AppleWebKit/537.36 (KHTML, like Gecko) Chrome/121.0.0.0 Safari/537.36" etag="BPBZ2_jxWzHnGN8p3Ood" version="23.1.3" type="github">
  <diagram name="Pagina-1" id="GO10uFYpWlPlG9NK3l4W">
    <mxGraphModel dx="1050" dy="522" grid="1" gridSize="10" guides="1" tooltips="1" connect="1" arrows="1" fold="1" page="1" pageScale="1" pageWidth="827" pageHeight="1169" math="0" shadow="0">
      <root>
        <mxCell id="0" />
        <mxCell id="1" parent="0" />
        <mxCell id="M6PpflLwcJhF2y0W_7Dz-3" style="edgeStyle=orthogonalEdgeStyle;rounded=0;orthogonalLoop=1;jettySize=auto;html=1;exitX=0.5;exitY=1;exitDx=0;exitDy=0;entryX=0.5;entryY=0;entryDx=0;entryDy=0;" edge="1" parent="1" source="M6PpflLwcJhF2y0W_7Dz-1" target="M6PpflLwcJhF2y0W_7Dz-2">
          <mxGeometry relative="1" as="geometry" />
        </mxCell>
        <mxCell id="M6PpflLwcJhF2y0W_7Dz-1" value="start" style="rounded=0;whiteSpace=wrap;html=1;" vertex="1" parent="1">
          <mxGeometry x="280" y="170" width="120" height="60" as="geometry" />
        </mxCell>
        <mxCell id="M6PpflLwcJhF2y0W_7Dz-7" style="edgeStyle=orthogonalEdgeStyle;rounded=0;orthogonalLoop=1;jettySize=auto;html=1;exitX=0.5;exitY=1;exitDx=0;exitDy=0;entryX=0.5;entryY=0;entryDx=0;entryDy=0;" edge="1" parent="1" source="M6PpflLwcJhF2y0W_7Dz-2" target="M6PpflLwcJhF2y0W_7Dz-4">
          <mxGeometry relative="1" as="geometry" />
        </mxCell>
        <mxCell id="M6PpflLwcJhF2y0W_7Dz-2" value="haal kaarten uit de doos" style="rounded=0;whiteSpace=wrap;html=1;" vertex="1" parent="1">
          <mxGeometry x="280" y="280" width="120" height="60" as="geometry" />
        </mxCell>
        <mxCell id="M6PpflLwcJhF2y0W_7Dz-6" style="edgeStyle=orthogonalEdgeStyle;rounded=0;orthogonalLoop=1;jettySize=auto;html=1;exitX=0.5;exitY=1;exitDx=0;exitDy=0;" edge="1" parent="1" source="M6PpflLwcJhF2y0W_7Dz-4" target="M6PpflLwcJhF2y0W_7Dz-5">
          <mxGeometry relative="1" as="geometry" />
        </mxCell>
        <mxCell id="M6PpflLwcJhF2y0W_7Dz-4" value="schud de kaarten" style="rounded=0;whiteSpace=wrap;html=1;" vertex="1" parent="1">
          <mxGeometry x="280" y="400" width="120" height="60" as="geometry" />
        </mxCell>
        <mxCell id="M6PpflLwcJhF2y0W_7Dz-5" value="einde" style="rounded=0;whiteSpace=wrap;html=1;" vertex="1" parent="1">
          <mxGeometry x="280" y="510" width="120" height="60" as="geometry" />
        </mxCell>
      </root>
    </mxGraphModel>
  </diagram>
</mxfile>
